# xmcd
#
# Track frame offsets:
#	150
#	15686
#	29536
#	46735
#	65173
#	83527
#	94416
#	107045
#	124877
#	144102
#	157946
#	173850
#
# Disc length: 2474 seconds
#
# Revision: 1
# Processed by: cddbd v1.4PL0 Copyright (c) Steve Scherf et al.
# Submitted via: audiograbber 1.81.02
#
DISCID=9609a80c
DTITLE=Ken Holloway - Best Of
DYEAR=1900
DGENRE=Gospel
TTITLE0=He Who Made The Rain
TTITLE1=Daddy Whipped The Devil
TTITLE2=He Loved Us To Death
TTITLE3=Runs In The Blood
TTITLE4=Don't Wanna Go Alone
TTITLE5=Rose Of Sharon
TTITLE6=Hoedown
TTITLE7=I Don't Care Where You Dig That Hole
TTITLE8=I'm Not Gonna Fall
TTITLE9=Not Enough Amazing Grace
TTITLE10=Trailer Hitch
TTITLE11=Unplug The Jukebox
EXTD=
EXTT0=
EXTT1=
EXTT2=
EXTT3=
EXTT4=
EXTT5=
EXTT6=
EXTT7=
EXTT8=
EXTT9=
EXTT10=
EXTT11=
PLAYORDER=
